<svg id="Layer_1" data-name="Layer 1" xmlns="http://www.w3.org/2000/svg" viewBox="0 0 2263.34 650"><path d="M300,650H285.484l7.258-139.194A15.325,15.325,0,0,0,274.839,495L136.29,519.355,155,467.742a10.484,10.484,0,0,0-3.226-11.774L0,333.064,34.194,317.1a10.484,10.484,0,0,0,5.483-12.742l-30-92.258L97.1,230.648a10.484,10.484,0,0,0,11.774-6.129l16.935-39.839,68.226,73.22a10.484,10.484,0,0,0,17.9-9.193l-32.9-169.678,52.742,30.484a10.483,10.483,0,0,0,14.345-3.742v0c.117-.2.228-.4.332-.611L300,0Z" fill="red"/><path d="M330.75,429.651V51.8H400.6l87.45,184.8q2.192,4.408,4.95,11t5.225,13.474Q500.7,267.961,502.35,274h2.75V51.8h69.85V429.65H505.1l-88-187.55q-2.759-7.143-6.875-17.875A185.753,185.753,0,0,1,403.35,202.5H400.6V429.65Z" fill="#fff"/><path d="M728.942,436.252q-35.2,0-59.125-15.4t-36.025-49.225q-12.1-33.826-12.1-86.626,0-53.895,12.1-87.175t36.025-48.95Q693.744,133.2,728.942,133.2q35.745,0,59.675,15.675t36.3,48.95Q837.292,231.111,837.292,285q0,52.8-12.375,86.626t-36.3,49.225Q764.692,436.243,728.942,436.252Zm0-54.45q14.851,0,23.1-7.425t12.375-25.3q4.125-17.865,4.125-45.925v-36.3q0-28.591-4.125-46.2t-12.375-25.575q-8.25-7.965-23.1-7.974-13.755,0-22.549,7.974t-12.651,25.575q-3.853,17.61-3.849,46.2v36.3q0,28.052,3.849,45.925t12.651,25.3q8.79,7.424,22.549,7.423Z" fill="#fff"/><path d="M919.786,429.651l-63.8-289.85h69.85l25.851,146.85q1.648,7.155,3.575,19.8t3.849,26.95q1.922,14.308,3.026,25.851h3.849q1.65-4.4,2.75-17.6t3.026-28.6q1.92-15.39,3.574-26.949l27.5-146.3h66l-63.8,289.85Z" fill="#fff"/><path d="M1154.635,436.252a82.788,82.788,0,0,1-28.325-4.676,60.487,60.487,0,0,1-22.55-14.3q-9.629-9.617-15.125-24.75t-5.5-36.024q0-23.643,8.25-42.076A85.308,85.308,0,0,1,1115.86,282.8q16.217-13.2,42.075-19.8t61.05-6.6v-33a58.5,58.5,0,0,0-2.75-18.975,26.1,26.1,0,0,0-9.625-12.925q-6.883-4.95-17.325-4.95-13.2,0-20.35,4.95a22.763,22.763,0,0,0-9.35,13.476,73.48,73.48,0,0,0-2.2,18.424v4.951h-62.7a17.885,17.885,0,0,1-.55-4.4v-5.5q0-29.145,12.375-47.849t34.375-28.051q21.992-9.345,51.15-9.35,27.495,0,48.4,8.526a68.036,68.036,0,0,1,33,28.324q12.093,19.8,12.1,54.45v139.15q0,8.25,3.85,12.925t11,4.676h13.75v45.1a76.328,76.328,0,0,1-19.25,6.875,105.056,105.056,0,0,1-23.1,2.474q-13.755,0-23.375-4.949a39.341,39.341,0,0,1-15.125-13.2,52.879,52.879,0,0,1-7.7-18.7h-2.75a74.993,74.993,0,0,1-15.4,18.7,76.913,76.913,0,0,1-22.275,13.474Q1172.23,436.248,1154.635,436.252Zm25.3-53.9a31.361,31.361,0,0,0,15.95-4.125A37.924,37.924,0,0,0,1208.26,366.4a58.746,58.746,0,0,0,7.975-18.149,93.21,93.21,0,0,0,2.75-23.65V297.1q-25.858,0-40.425,6.324t-20.9,17.051q-6.33,10.725-6.325,25.575,0,11.55,3.575,19.524a29.979,29.979,0,0,0,9.625,12.375q6.045,4.411,15.4,4.4Z" fill="#fff"/><path d="M1389.964,429.651V51.8h69.849l87.451,184.8q2.192,4.408,4.95,11t5.224,13.474q2.476,6.885,4.125,12.925h2.75V51.8h69.851V429.65h-69.851l-88-187.549q-2.757-7.143-6.875-17.875a185.829,185.829,0,0,1-6.875-21.726h-2.75V429.65Z" fill="#fff"/><path d="M1787.606,436.252q-37.409,0-60.775-15.4-23.383-15.391-34.649-48.951-11.28-33.54-11.276-86.9,0-55.545,11.55-88.825t36.025-48.125q24.466-14.85,61.326-14.85,34.1,0,56.924,13.475t33.55,44.825q10.727,31.35,10.725,85.8v21.45h-141.9q0,29.159,3.576,47.851t11.549,27.775q7.966,9.075,23.925,9.074a36.614,36.614,0,0,0,15.4-3.024,26.33,26.33,0,0,0,11-9.625q4.393-6.6,7.149-17.325a104.138,104.138,0,0,0,2.75-25.576h66q-.553,27.508-7.425,47.851t-19.525,33.824a77.389,77.389,0,0,1-31.625,20.075Q1812.907,436.253,1787.606,436.252Zm-38.5-176.551h73.7a302.938,302.938,0,0,0-1.651-34.1q-1.649-14.3-5.5-23.1t-10.724-12.649A32.763,32.763,0,0,0,1788.706,186q-14.848,0-23.375,8.25t-12.1,24.476q-3.583,16.228-4.125,40.974Z" fill="#fff"/><path d="M2015.3,436.252q-26.4,0-44.55-6.325t-29.15-17.6a69.32,69.32,0,0,1-16.225-26.949A108,108,0,0,1,1920.148,351c0-1.461.086-3.481.275-6.051s.456-4.949.825-7.149h60.5a35.388,35.388,0,0,0-.55,5.774v5.776a54.847,54.847,0,0,0,4.125,19.25,27.174,27.174,0,0,0,11.55,12.924A35.691,35.691,0,0,0,2015.3,386.2q11,0,18.15-3.3t11.275-11.549a42.519,42.519,0,0,0,4.125-19.25q0-13.743-7.425-21.725a57.959,57.959,0,0,0-19.25-13.2q-11.833-5.22-26.125-11.275a223.789,223.789,0,0,1-25.025-10.45A91.334,91.334,0,0,1,1948.2,279.5a76.17,76.17,0,0,1-17.05-24.75q-6.6-14.849-6.6-37.95,0-20.9,7.425-36.85a72.987,72.987,0,0,1,20.35-26.4,84.626,84.626,0,0,1,29.975-15.4,138.289,138.289,0,0,1,72.325-.275,78.335,78.335,0,0,1,28.05,14.3,64.7,64.7,0,0,1,18.15,23.375q6.317,13.755,6.325,31.35v9.076a61.358,61.358,0,0,1-.55,8.524h-59.95v-11q0-10.44-3.575-17.325a21.158,21.158,0,0,0-10.45-9.9,40.19,40.19,0,0,0-16.225-3.025,36.488,36.488,0,0,0-12.1,1.925,27.168,27.168,0,0,0-9.625,5.775,20.865,20.865,0,0,0-5.775,9.075,41.37,41.37,0,0,0-1.65,12.375q0,11.552,6.6,18.975t17.875,11.825q11.267,4.41,23.925,9.35,13.2,5.505,27.225,11.275a102.419,102.419,0,0,1,25.575,15.125,68.665,68.665,0,0,1,18.7,24.475q7.142,15.135,7.15,38.225,0,24.75-7.425,42.625a76.823,76.823,0,0,1-20.9,29.425,86.782,86.782,0,0,1-31.35,17.051A133.492,133.492,0,0,1,2015.3,436.252Z" fill="#fff"/><path d="M2217.14,436.252q-20.91,0-33.275-8.25a44.713,44.713,0,0,1-17.6-23.1q-5.233-14.849-5.225-34.649V193.7h-24.75V139.8h26.4l11.55-84.7h52.8v84.7h36.3v53.9h-36.3V358.15q0,12.1,3.3,17.326t13.2,5.224h19.8V428q-8.25,2.2-15.95,4.125a155.322,155.322,0,0,1-15.4,3.024A105.432,105.432,0,0,1,2217.14,436.252Z" fill="#fff"/><path d="M350.669,617.693l-31.4-137.4h28.2l15.6,77.6q.8,3.8,1.7,9l1.8,10.4q.9,5.2,1.3,9.2h1.4q.4-2.4,1.1-6.5t1.5-9.7q.8-5.6,2-12.4l15.8-77.6h27.8l-32,137.4Z" fill="#fff"/><path d="M453.868,620.094q-13.6,0-22.1-5.6t-12.6-17.8q-4.1-12.2-4.1-31.6,0-20.2,4.2-32.3t13.1-17.5q8.9-5.4,22.3-5.4,12.4,0,20.7,4.9t12.2,16.3q3.9,11.4,3.9,31.2v7.8h-51.6a95.4,95.4,0,0,0,1.3,17.4q1.3,6.8,4.2,10.1t8.7,3.3a13.323,13.323,0,0,0,5.6-1.1,9.54,9.54,0,0,0,4-3.5,20.672,20.672,0,0,0,2.6-6.3,37.9,37.9,0,0,0,1-9.3h24a58.2,58.2,0,0,1-2.7,17.4,33.243,33.243,0,0,1-7.1,12.3,28.15,28.15,0,0,1-11.5,7.3A49.006,49.006,0,0,1,453.868,620.094Zm-14-64.2h26.8a109.973,109.973,0,0,0-.6-12.4,29.934,29.934,0,0,0-2-8.4,9.325,9.325,0,0,0-3.9-4.6,11.91,11.91,0,0,0-5.9-1.4q-5.4,0-8.5,3t-4.4,8.9A78.968,78.968,0,0,0,439.868,555.894Z" fill="#fff"/><path d="M506.866,617.693v-105.4h20.4l1.8,13.2h1a29.205,29.205,0,0,1,5.9-8.9,21.032,21.032,0,0,1,8.2-5.1,31.8,31.8,0,0,1,10.3-1.6q8,0,13.3,3.1a18.288,18.288,0,0,1,7.8,9.5q2.5,6.4,2.5,16.6v78.6h-23.8v-72.4a28.275,28.275,0,0,0-.5-5.5,11.864,11.864,0,0,0-1.7-4.3,7.437,7.437,0,0,0-3.2-2.7,10.6,10.6,0,0,0-4.4-.9,10.244,10.244,0,0,0-7.4,2.9,18.66,18.66,0,0,0-4.6,8.2,46.746,46.746,0,0,0-1.6,13.3v61.4Z" fill="#fff"/><path d="M619.265,620.094q-7.6,0-12.1-3a16.256,16.256,0,0,1-6.4-8.4,37.852,37.852,0,0,1-1.9-12.6v-64.2h-9v-19.6h9.6l4.2-30.8h19.2v30.8h13.2v19.6h-13.2v59.8q0,4.4,1.2,6.3t4.8,1.9h7.2v17.2q-3,.8-5.8,1.5a56.409,56.409,0,0,1-5.6,1.1A38.418,38.418,0,0,1,619.265,620.094Z" fill="#fff"/><path d="M671.862,620.094q-12,0-17.8-7.1t-5.8-21.9v-78.8h24v72.2a29.215,29.215,0,0,0,.5,5.7,10.87,10.87,0,0,0,1.7,4.2,7.805,7.805,0,0,0,3.1,2.6,10.92,10.92,0,0,0,4.7.9,10.1,10.1,0,0,0,7.1-2.9,18.164,18.164,0,0,0,4.7-8.3,47.038,47.038,0,0,0,1.6-13.2v-61.2h24v105.4h-20.4l-1.6-13.2h-.8a37.724,37.724,0,0,1-6.5,8.8,23.05,23.05,0,0,1-8,5.1A29.714,29.714,0,0,1,671.862,620.094Z" fill="#fff"/><path d="M738.263,617.693v-105.4h20.2l1.4,14.8h1a34.532,34.532,0,0,1,4.4-9.3,21.311,21.311,0,0,1,6.1-5.9,13.835,13.835,0,0,1,7.5-2.2,16.213,16.213,0,0,1,3.7.4,18.957,18.957,0,0,1,3.1,1v24.8h-8a13.658,13.658,0,0,0-6.7,1.6,13.1,13.1,0,0,0-4.9,5,25.488,25.488,0,0,0-2.9,8.5,70.644,70.644,0,0,0-.9,12.1v54.6Z" fill="#fff"/><path d="M828.463,620.094q-13.6,0-22.1-5.6t-12.6-17.8q-4.1-12.2-4.1-31.6,0-20.2,4.2-32.3t13.1-17.5q8.9-5.4,22.3-5.4,12.4,0,20.7,4.9t12.2,16.3q3.9,11.4,3.9,31.2v7.8h-51.6a95.4,95.4,0,0,0,1.3,17.4q1.3,6.8,4.2,10.1t8.7,3.3a13.323,13.323,0,0,0,5.6-1.1,9.553,9.553,0,0,0,4-3.5,20.682,20.682,0,0,0,2.6-6.3,37.9,37.9,0,0,0,1-9.3h24a58.16,58.16,0,0,1-2.7,17.4,33.235,33.235,0,0,1-7.1,12.3,28.15,28.15,0,0,1-11.5,7.3A49.006,49.006,0,0,1,828.463,620.094Zm-14-64.2h26.8a110.208,110.208,0,0,0-.6-12.4,29.934,29.934,0,0,0-2-8.4,9.325,9.325,0,0,0-3.9-4.6,11.912,11.912,0,0,0-5.9-1.4q-5.4,0-8.5,3t-4.4,8.9A78.968,78.968,0,0,0,814.463,555.894Z" fill="#fff"/></svg>