<svg xmlns="http://www.w3.org/2000/svg" viewBox="0 0 2100.877 813.28"><path d="M315,655H300.5l7.3-139.2a15.252,15.252,0,0,0-14.6-16,12.223,12.223,0,0,0-3.3.2L151.4,524.4l18.7-51.6a10.455,10.455,0,0,0-3.2-11.8L15,338.1l34.2-16a10.494,10.494,0,0,0,5.5-12.7l-30-92.3,87.4,18.5a10.509,10.509,0,0,0,11.8-6.1l16.9-39.8L209,262.9a10.487,10.487,0,0,0,17.9-9.2L194,84l52.7,30.5a10.43,10.43,0,0,0,14.3-3.7l.3-.6L315,5Z" transform="translate(-15 -5)" style="fill:red"/><g style="isolation:isolate"><path d="M438.831,189.792l-23.555-34.223V360.458a12.285,12.285,0,0,0,2.666,8.111,17.046,17.046,0,0,0,7.778,5l28.222,9.556v13.556H346.386V383.125l28.223-9.556a17.192,17.192,0,0,0,7.444-5,11.95,11.95,0,0,0,3-8.111V126.236a12.3,12.3,0,0,0-3.111-8.555,14.877,14.877,0,0,0-7.333-4.556l-30.445-9.111V90.458H441.5l133.555,192L595.942,312.9V126.681a12.211,12.211,0,0,0-2.666-8.223,17.632,17.632,0,0,0-7.778-4.889l-28.222-9.555V90.458H665.053v13.556l-28.222,9.555a20.071,20.071,0,0,0-7.667,5c-2,2.15-5.964,5.429-5.964,8.686l-3.7,218.3V398.9H584.386Z" transform="translate(-15 -5)" style="fill:white"/><path d="M754.72,402.681q-25.557,0-45.777-8a94.41,94.41,0,0,1-34.334-22.889,101.3,101.3,0,0,1-21.666-35.778q-7.557-20.885-7.556-46.666a131.064,131.064,0,0,1,7.445-44.556,105.476,105.476,0,0,1,21.777-36.334,101.15,101.15,0,0,1,35.111-24.444q20.776-8.885,47.667-8.889,28.667,0,49.333,9.444t34,25.112A101.166,101.166,0,0,1,860.387,245.9a143.715,143.715,0,0,1,6.333,42.555,132.228,132.228,0,0,1-7.333,44.334,104.031,104.031,0,0,1-21.667,36.333A102.1,102.1,0,0,1,802.5,393.681Q781.608,402.681,754.72,402.681Zm2.889-22.445q14.22,0,23.111-8.444A56.563,56.563,0,0,0,794.5,350.458a114.217,114.217,0,0,0,6.556-28.333,274.838,274.838,0,0,0,1.666-29.444,252.109,252.109,0,0,0-2.333-34.333,125.482,125.482,0,0,0-7.889-30.556q-5.558-13.552-14.778-22T754.5,197.348q-14,0-22.778,8.333A56.155,56.155,0,0,0,718.054,226.9a117.362,117.362,0,0,0-6.667,28.222,254.36,254.36,0,0,0-1.778,29.333A291.922,291.922,0,0,0,711.5,316.9a127.406,127.406,0,0,0,7.222,31,62.972,62.972,0,0,0,14.667,23.222Q742.72,380.239,757.609,380.236Z" transform="translate(-15 -5)" style="fill:white"/><path d="M875.05,214.681a34.228,34.228,0,0,0-2.333-4.333,14.409,14.409,0,0,0-3-3.334,32.835,32.835,0,0,0-4.556-3,72.663,72.663,0,0,0-7-3.333l-15.111-6.223v-13.11H964.605v13.11l-32,8.445,42,104,11.334,27.778,48.666-130.445-31.333-9.778v-13.11h86.222v13.11l-15.111,7.556a66.309,66.309,0,0,0-10.222,5.889,18.633,18.633,0,0,0-6,8.111l-56.222,135.334-24.222,46.888H953.494Z" transform="translate(-15 -5)" style="fill:white"/><path d="M1121.386,401.125a56.43,56.43,0,0,1-23.777-4.889,58.321,58.321,0,0,1-18.334-13,56.719,56.719,0,0,1-11.777-18.778,63.969,63.969,0,0,1,.555-46.555,63.8,63.8,0,0,1,12.556-19,79.914,79.914,0,0,1,18.222-14.111,116.669,116.669,0,0,1,21.555-9.556,145.773,145.773,0,0,1,22.445-5.444,136.013,136.013,0,0,1,21.222-1.778q2,0,5.667.222t7.666.556q4,.333,7.667.556t5.889.221l.222-32.221a103.756,103.756,0,0,0-1.222-17.556q-1.224-6.887-4.333-10.667a16.006,16.006,0,0,0-8.223-5.222,48.411,48.411,0,0,0-12.888-1.445,50.521,50.521,0,0,0-18.667,3.89,145.451,145.451,0,0,0-19.333,9.444q-9.558,5.558-18.112,11.666t-14.777,10.334H1086.5l-9.112-43.334q7.553-3.55,16.778-7a204.42,204.42,0,0,1,19.889-6.222,198.5,198.5,0,0,1,22.667-4.444,180.812,180.812,0,0,1,24.889-1.667,149.792,149.792,0,0,1,31.555,3.444,86.326,86.326,0,0,1,28.779,11.667,64.406,64.406,0,0,1,20.777,21.778q8,13.557,7.778,33.555l-1.334,110.223a14.588,14.588,0,0,0,1.112,5.889,11.619,11.619,0,0,0,3.444,4.444,16.22,16.22,0,0,0,5.778,2.889,29.236,29.236,0,0,0,8.111,1,55.453,55.453,0,0,0,7.667-.889q5.443-.885,10.333-2h4.444v15.556a59.776,59.776,0,0,1-9.11,5.555,130.815,130.815,0,0,1-13.556,6,128.094,128.094,0,0,1-15.889,4.889,68.142,68.142,0,0,1-15.889,2,85.337,85.337,0,0,1-18-1.777,40.866,40.866,0,0,1-14.333-5.89,27.935,27.935,0,0,1-9.556-11.11q-3.448-7-3.445-17.445-8.223,12.447-17.333,19.666a73.293,73.293,0,0,1-18.333,10.889,70.342,70.342,0,0,1-17.778,4.667A134.2,134.2,0,0,1,1121.386,401.125Zm34-33.556a58.447,58.447,0,0,0,9.445-.777,37.3,37.3,0,0,0,9.444-2.889,38.015,38.015,0,0,0,8.778-5.555,36.69,36.69,0,0,0,7.445-8.779l.444-63.333a134.134,134.134,0,0,0-27.333,2.556,60.64,60.64,0,0,0-20.778,8.111,38.868,38.868,0,0,0-13.222,14.111q-4.666,8.558-4.667,20.555,0,10.449,2.778,17.334a31.878,31.878,0,0,0,7.111,11.111,23.893,23.893,0,0,0,9.778,5.889A36.667,36.667,0,0,0,1155.386,367.569Z" transform="translate(-15 -5)" style="fill:white"/></g><g style="isolation:isolate"><path d="M1337.381,193.763l-23.556-34.223V364.429a12.288,12.288,0,0,0,2.667,8.111,17.062,17.062,0,0,0,7.778,5l28.222,9.556v13.555H1244.937V387.1l28.221-9.556a17.2,17.2,0,0,0,7.445-5,11.952,11.952,0,0,0,3-8.111V130.207a12.308,12.308,0,0,0-3.111-8.556,14.873,14.873,0,0,0-7.334-4.555l-30.444-9.112V94.429h97.334l133.555,192,20.889,30.445V130.651a12.2,12.2,0,0,0-2.667-8.222,17.614,17.614,0,0,0-7.777-4.889l-28.223-9.556V94.429H1563.6v13.555l-28.222,9.556a20.071,20.071,0,0,0-7.667,5c-2,2.149-7.394,7.8-7.394,11.06l-2.34,214.74.068,54.534h-35.111Z" transform="translate(-15 -5)" style="fill:white"/><path d="M1664.659,405.54q-24,0-43.888-7.222a92.866,92.866,0,0,1-34.223-21.444,96.962,96.962,0,0,1-22.222-35q-7.891-20.778-7.889-48.111a126.121,126.121,0,0,1,7.555-43.445,110.249,110.249,0,0,1,21.779-36.555,105.4,105.4,0,0,1,34.777-25.223Q1641.1,179.1,1667.1,179.1q22,0,39,7.333a87.315,87.315,0,0,1,28.444,19.111,81.075,81.075,0,0,1,17.444,27,83.331,83.331,0,0,1,6,30.778q0,2-.11,5.333t-.334,6.667q-.225,3.333-.444,6.333t-.445,4.556h-138q.219,41.783,17.223,63.556t53,21.777a95.759,95.759,0,0,0,21.444-2.222,117.928,117.928,0,0,0,17.445-5.334,97.1,97.1,0,0,0,13.888-6.777q6.109-3.666,10.778-6.333h5.111v17.11a154.475,154.475,0,0,1-17.333,13,174.668,174.668,0,0,1-21.889,12.112,143.264,143.264,0,0,1-25.444,9A114.241,114.241,0,0,1,1664.659,405.54Zm32.445-138a221.264,221.264,0,0,0-1.445-26.111,74.546,74.546,0,0,0-5.333-21,34.782,34.782,0,0,0-10.555-14q-6.667-5.111-16.889-5.111a34.963,34.963,0,0,0-18,4.556,38.26,38.26,0,0,0-13.111,13.11,71.1,71.1,0,0,0-8.334,20.89,143.824,143.824,0,0,0-3.666,27.666Z" transform="translate(-15 -5)" style="fill:white"/><path d="M1848.6,407.1a187.972,187.972,0,0,1-24.333-1.445,201.672,201.672,0,0,1-20.334-3.667q-9.333-2.217-17.333-4.777t-15.556-4.778V329.1h18l8.444,24.667a15.865,15.865,0,0,0,2.779,5,28.169,28.169,0,0,0,4.221,4.221,53.5,53.5,0,0,0,9.445,6.112,104.1,104.1,0,0,0,9.555,4.333,121.458,121.458,0,0,0,12.445,4.222q6.666,1.891,13.444,3.223a66.315,66.315,0,0,0,12.778,1.333,49.9,49.9,0,0,0,12.778-1.556,25,25,0,0,0,10.222-5.333,25.3,25.3,0,0,0,6.778-9.889,41.236,41.236,0,0,0,2.444-15.222q0-7.552-3.555-12.556a31.59,31.59,0,0,0-9.334-8.555,59.942,59.942,0,0,0-13-5.889q-7.223-2.334-14.333-4.333-11.115-3.11-19.111-5.556t-16.444-5.111a74.629,74.629,0,0,1-18.667-8.778,56.185,56.185,0,0,1-14-13.111,55.555,55.555,0,0,1-8.778-17.667,76.329,76.329,0,0,1-3-22,54.076,54.076,0,0,1,7.222-27.444,67.844,67.844,0,0,1,19.89-21.556,98.982,98.982,0,0,1,29.666-14,129.009,129.009,0,0,1,36.555-5q12,0,21,.667t16.667,1.889q7.668,1.222,14.556,2.777t14.666,3.334l3.556,63.333h-18.889l-9.777-24a21.782,21.782,0,0,0-5.779-8.333,40.909,40.909,0,0,0-8.666-6.111,67.377,67.377,0,0,0-8.334-3.667q-4.557-1.666-9.666-3a99.072,99.072,0,0,0-10.334-2.111,70.294,70.294,0,0,0-10.333-.778,29.622,29.622,0,0,0-8.888,1.556,28.63,28.63,0,0,0-9.112,4.889,27.208,27.208,0,0,0-7.111,8.778,27.893,27.893,0,0,0-2.889,13.222,29.338,29.338,0,0,0,2.778,13.444,27.6,27.6,0,0,0,7.334,9.111,38.594,38.594,0,0,0,10.221,5.889q5.668,2.223,11.445,4,9.552,3.114,18.111,5.889t14.333,4.555a160.067,160.067,0,0,1,22.223,8.779,73.254,73.254,0,0,1,17.667,11.888,48.572,48.572,0,0,1,11.555,16.223q4.109,9.333,4.111,22,0,19.333-8.333,33.333a70.455,70.455,0,0,1-22.223,23.111,100.546,100.546,0,0,1-31.777,13.445A156.673,156.673,0,0,1,1848.6,407.1Z" transform="translate(-15 -5)" style="fill:white"/><path d="M2046.1,404.874a107.008,107.008,0,0,1-26-3,65.426,65.426,0,0,1-20.779-8.89,43.714,43.714,0,0,1-13.666-14.221,36.836,36.836,0,0,1-4.889-19V210.651H1946.1v-14a149.4,149.4,0,0,0,15.666-4.444,41.88,41.88,0,0,0,12.111-6.444,28.219,28.219,0,0,0,8.111-10.334q3-6.333,3.667-16.111l1.555-27.334,53.111-8.221v62.888h75.556l-7.111,24h-68.445V348.429a17,17,0,0,0,4.445,11.667,37.789,37.789,0,0,0,10.778,8.333,56.713,56.713,0,0,0,13.333,5,54.1,54.1,0,0,0,12.333,1.667,59.486,59.486,0,0,0,7.223-.445q3.666-.443,7.111-1t6.444-1.333q3-.775,5.445-1.444h5.111v14.889q-3.558,2-10.111,5.221a148.8,148.8,0,0,1-34.333,11.667A105.643,105.643,0,0,1,2046.1,404.874Z" transform="translate(-15 -5)" style="fill:white"/></g><text transform="translate(347.269 638.693)" style="isolation:isolate;font-size:250px;fill:white;font-family:Caveat-Regular, Caveat">Acade<tspan x="502.995" y="0" style="letter-spacing:-0.00999609375em">m</tspan><tspan x="640.495" y="0">y</tspan></text><text x="-15" y="-5"/></svg>